REM MD5 9a32ce8d969ee8594ef27292501cebc0
FILE "Simple 1500 Series Vol. 2 - The Shougi (Japan).bin" BINARY
  TRACK 01 MODE2/2352
    INDEX 01 00:00:00
  TRACK 02 AUDIO
    INDEX 00 05:45:28
    INDEX 01 05:47:28
  TRACK 03 AUDIO
    INDEX 00 08:39:45
    INDEX 01 08:41:45
  TRACK 04 AUDIO
    INDEX 00 11:23:59
    INDEX 01 11:25:59
  TRACK 05 AUDIO
    INDEX 00 13:28:52
    INDEX 01 13:30:52
  TRACK 06 AUDIO
    INDEX 00 19:03:26
    INDEX 01 19:05:26
REM LEADOUT 21:39:46
